<svg width="20" height="20" viewBox="0 0 20 20" fill="none" xmlns="http://www.w3.org/2000/svg">
<g clip-path="url(#clip0_14_34)">
<rect width="20" height="20" fill="#D9D9D9"/>
<path d="M19.5 0.5H0.5V19.5H19.5V0.5Z" fill="#57A83C" stroke="#57A83C"/>
<path d="M17 14H3V13.5V12.5H1V9H3V8H4V6H6V5H7.5H11V6H12.5H14V4.5H16V6.5V9H18V11H19V14H17Z" fill="#76E451" stroke="#2D5F1C"/>
<path d="M10.1306 6.99747L9.08165 6.04893L8.55718 5.57466M8.55718 5.57466L8.53208 5.07529M8.55718 5.57466L8.05781 5.59976" stroke="#BCA133" stroke-width="0.2"/>
<path d="M9.14925 5.92221L8.52642 4.59832L9 4L9.98396 4.72557L9.14925 5.92221L10.6068 6.04946L10.1894 6.64779L9.14925 5.92221Z" fill="#FFA5E8"/>
<path d="M9.14925 5.92221L8.52642 4.59832L9 4L9.98396 4.72557L9.14925 5.92221ZM9.14925 5.92221L10.6068 6.04946L10.1894 6.64779L9.14925 5.92221Z" stroke="#D05DB3" stroke-width="0.2"/>
<path d="M8.94037 6.15834L7.51087 5.6918L7 6.18221L7.91862 7.13916L8.94037 6.15834L9.34812 7.60571L9.85899 7.11529L8.94037 6.15834Z" fill="#FFA5E8"/>
<path d="M8.94037 6.15834L7.51087 5.6918L7 6.18221L7.91862 7.13916L8.94037 6.15834ZM8.94037 6.15834L9.34812 7.60571L9.85899 7.11529L8.94037 6.15834Z" stroke="#D05DB3" stroke-width="0.2"/>
</g>
<defs>
<clipPath id="clip0_14_34">
<rect width="20" height="20" fill="white"/>
</clipPath>
</defs>
</svg>
