<svg width="20" height="20" viewBox="0 0 20 20" fill="none" xmlns="http://www.w3.org/2000/svg">
<g clip-path="url(#clip0_1_160)">
<rect width="20" height="20" fill="#D9D9D9"/>
<path d="M0.5 0V20H1.5V0H2.5V20H3.5V0H4.5V20H5.5V0H6.5V20H7.5V0H8.5V20H9.5V0H10.5V20H11.5V0H12.5V20H13.5V0H14.5V20H15.5V0H16.5V20H17.5V0H18.5V20H19.5V0" stroke="#57A83C"/>
<path d="M1 1V3" stroke="#6ADB45"/>
<path d="M16 3V5" stroke="#6ADB45"/>
<path d="M4 17V19" stroke="#6ADB45"/>
<path d="M15 15V17" stroke="#6ADB45"/>
<path d="M11 10V12" stroke="#6ADB45"/>
<path d="M17 10V12" stroke="#6ADB45"/>
<path d="M4 10V12" stroke="#6ADB45"/>
<path d="M5 6V8" stroke="#6ADB45"/>
<path d="M4 13V15" stroke="#6ADB45"/>
<path d="M11 3V5" stroke="#6ADB45"/>
<path d="M17 17V19" stroke="#6ADB45"/>
<path d="M9 16V18" stroke="#6ADB45"/>
<path d="M4.5 15V16.5M4.5 16.5H3M4.5 16.5V18M4.5 16.5H6" stroke="#F53EEF"/>
<path d="M4.5 16V17" stroke="#F5E93E"/>
<path d="M15.5 1V2.5M15.5 2.5H14M15.5 2.5V4M15.5 2.5H17" stroke="#F5933E"/>
<path d="M15.5 2V3" stroke="#F5E93E"/>
</g>
<defs>
<clipPath id="clip0_1_160">
<rect width="20" height="20" fill="white"/>
</clipPath>
</defs>
</svg>
