<svg width="20" height="20" viewBox="0 0 20 20" fill="none" xmlns="http://www.w3.org/2000/svg">
<g clip-path="url(#clip0_14_67)">
<rect width="20" height="20" fill="#D9D9D9"/>
<path d="M19.5 19.5V0.5H0.5V19.5H19.5Z" fill="#57A83C"/>
<path d="M0 0.5H0.5M20 0.5H19.5M19.5 0.5V19.5M19.5 0.5H0.5M19.5 20V19.5M19.5 19.5H0.5M0 19.5H0.5M0.5 19.5V0.5" stroke="#57A83C"/>
<path d="M3 9H2H1V14H3H18V13L18.5 12H17.5L18 11.5V10H17L17.5 9H16H15H13V8H12.5V9H9.5H7H3Z" fill="#65582D" stroke="#806D33" stroke-width="0.2"/>
<path d="M3 14V9H1V14H3Z" fill="#B4A264" stroke="#806D33" stroke-width="0.2"/>
<path d="M2.5 13.5V9.5H1.5V13H2V10" stroke="#806D33" stroke-width="0.2"/>
<path d="M5.5 10H8.5L9 11L10 10.5H15.5" stroke="#806D33" stroke-width="0.2"/>
<path d="M4.5 11.5H7.5" stroke="#806D33" stroke-width="0.2"/>
<path d="M10 12H16.5" stroke="#806D33" stroke-width="0.2"/>
<path d="M12 11.5H16" stroke="#806D33" stroke-width="0.2"/>
<path d="M4 13L5.5 12.5L7 13H13" stroke="#806D33" stroke-width="0.2"/>
<path d="M14 13.5V15" stroke="#72BF58" stroke-width="0.2"/>
<path d="M14.5 15V14.5" stroke="#72BF58" stroke-width="0.2"/>
<path d="M13 15V13" stroke="#72BF58" stroke-width="0.2"/>
<path d="M13.5 15V14" stroke="#72BF58" stroke-width="0.2"/>
</g>
<defs>
<clipPath id="clip0_14_67">
<rect width="20" height="20" fill="white"/>
</clipPath>
</defs>
</svg>
