<svg width="20" height="20" viewBox="0 0 20 20" fill="none" xmlns="http://www.w3.org/2000/svg">
<g clip-path="url(#clip0_1_122)">
<rect width="20" height="20" fill="#D9D9D9"/>
<path d="M19.5 0.5H0.5V19.5H19.5V0.5Z" fill="#57A83C" stroke="#57A83C"/>
<path d="M2.5 2V4" stroke="#6ADB45"/>
<path d="M17 2V4" stroke="#6ADB45"/>
<path d="M3 16V18" stroke="#6ADB45"/>
<path d="M12 17V19" stroke="#6ADB45"/>
<path d="M5 10V12" stroke="#6ADB45"/>
<path d="M14 11V13" stroke="#6ADB45"/>
<path d="M9 11V13" stroke="#6ADB45"/>
<path d="M17 17V19" stroke="#6ADB45"/>
<path d="M16 7V9" stroke="#6ADB45"/>
<path d="M9 6V8" stroke="#6ADB45"/>
<path d="M8.5 4V5.5M8.5 5.5H7M8.5 5.5V7M8.5 5.5H10" stroke="#F53E3E"/>
<path d="M8.5 5V6" stroke="#F5E93E"/>
<path d="M11.5 15V16.5M11.5 16.5H10M11.5 16.5V18M11.5 16.5H13" stroke="#3E87F5"/>
<path d="M11.5 16V17" stroke="#F5E93E"/>
</g>
<defs>
<clipPath id="clip0_1_122">
<rect width="20" height="20" fill="white"/>
</clipPath>
</defs>
</svg>
