<svg width="20" height="20" viewBox="0 0 20 20" fill="none" xmlns="http://www.w3.org/2000/svg">
<g clip-path="url(#clip0_16_2)">
<rect width="20" height="20" fill="white"/>
<path d="M19.5 19.4872V0H0.5V19.4872H19.5Z" fill="#57A83C"/>
<path d="M0 0H0.5M20 0H19.5M19.5 0V19.4872M19.5 0H0.5M19.5 20V19.4872M19.5 19.4872H0.5M0 19.4872H0.5M0.5 19.4872V0" stroke="#57A83C"/>
<path d="M12 13V15H11V13H12Z" fill="#D4C793" stroke="#5A412B" stroke-width="0.2"/>
<path d="M8 12V14H7V12H8Z" fill="#D4C793" stroke="#5A412B" stroke-width="0.2"/>
<path d="M13.5 8V10H12.5V8H13.5Z" fill="#FDF7DD" stroke="#5A412B" stroke-width="0.2"/>
<path d="M5 5V7H4V5H5Z" fill="#D4C793" stroke="#5A412B" stroke-width="0.2"/>
<path d="M10 13H13V12L12.5 11.5L12 11H11L10 12V13Z" fill="#69603B" stroke="#5A412B" stroke-width="0.2"/>
<path d="M6 12H9V11L8.5 10.5L8 10H7L6 11V12Z" fill="#69603B" stroke="#5A412B" stroke-width="0.2"/>
<path d="M11 8H15L14.5 6.5L14 6L13.6667 5H12.3333L11.5 6.5L11 8Z" fill="#85473A" stroke="#5A412B" stroke-width="0.2"/>
<path d="M13 6.5V6H13.5V6.5H13Z" fill="white" stroke="#5A412B" stroke-width="0.2"/>
<path d="M12 7.5V7H12.5V7.5H12Z" fill="white" stroke="#5A412B" stroke-width="0.2"/>
<path d="M14 7.5V7H14.5V7.5H14Z" fill="white" stroke="#5A412B" stroke-width="0.2"/>
<path d="M3 5H6V4.5L5.5 4.25L5 4H4L3 4.5V5Z" fill="#B7AC7F" stroke="#5A412B" stroke-width="0.2"/>
</g>
<defs>
<clipPath id="clip0_16_2">
<rect width="20" height="20" fill="white"/>
</clipPath>
</defs>
</svg>
