<svg width="20" height="20" viewBox="0 0 20 20" fill="none" xmlns="http://www.w3.org/2000/svg">
<g clip-path="url(#clip0_1_79)">
<rect x="20" y="20" width="20" height="20" transform="rotate(-180 20 20)" fill="#D9D9D9"/>
<path d="M0 0.5H10.5M11 0.5H10.5M10.5 0.5V19.5M10.5 20V19.5M10.5 19.5H0.5M0 19.5H0.5M0.5 19.5V1H1.5V19H2.5V1H3.5V19H4.5V1H5.5V19H6.5V1H7.5V19H8.5V1H9.5V19" stroke="#57A83C"/>
<path d="M16.5 0V20H19.5V0H18.5M18.5 0H17.5V19.5H18.5V0Z" stroke="#CCC11D"/>
<path d="M15.5 0V20" stroke="#BECF07"/>
<path d="M13.5 0V20H14.5V0" stroke="#9EB80F"/>
<path d="M11.5 0V20H12.5V0" stroke="#79B00A"/>
</g>
<defs>
<clipPath id="clip0_1_79">
<rect width="20" height="20" fill="white" transform="matrix(-1 0 0 -1 20 20)"/>
</clipPath>
</defs>
</svg>
