<svg width="20" height="20" viewBox="0 0 20 20" fill="none" xmlns="http://www.w3.org/2000/svg">
<g clip-path="url(#clip0_1_101)">
<rect x="20" width="20" height="20" transform="rotate(90 20 0)" fill="#D9D9D9"/>
<path d="M0.5 20L0.5 9.5M0.5 9L0.5 9.5M0.5 9.5L19.5 9.5M20 9.5H19.5M19.5 9.5L19.5 19.5M19.5 20V19.5M19.5 19.5L1 19.5L1 18.5L19 18.5V17.5L1 17.5L1 16.5L19 16.5V15.5L1 15.5L1 14.5L19 14.5V13.5L1 13.5L1 12.5L19 12.5V11.5L1 11.5L1 10.5L19 10.5" stroke="#57A83C"/>
<path d="M0 3.5L20 3.5V0.5L0 0.5L0 1.5M0 1.5L0 2.5L19.5 2.5V1.5L0 1.5Z" stroke="#CCC11D"/>
<path d="M0 4.5L20 4.5" stroke="#BECF07"/>
<path d="M0 6.5L20 6.5V5.5L0 5.5" stroke="#9EB80F"/>
<path d="M0 8.5L20 8.5V7.5L0 7.5" stroke="#79B00A"/>
</g>
<defs>
<clipPath id="clip0_1_101">
<rect width="20" height="20" fill="white" transform="matrix(0 1 -1 0 20 0)"/>
</clipPath>
</defs>
</svg>
