<svg width="20" height="20" viewBox="0 0 20 20" fill="none" xmlns="http://www.w3.org/2000/svg">
<g clip-path="url(#clip0_1_46)">
<rect x="20" width="20" height="20" transform="rotate(90 20 0)" fill="#D9D9D9"/>
<path d="M11 0.5L8.5 0.5V1.5M8.5 2V1.5M8.5 1.5H7.5V3.5M7.5 4V3.5M7.5 3.5H5.5V5.5M5.5 6V5.5M5.5 5.5H3.5V6.5M3.5 7V6.5M3.5 6.5H1.5V7.5M1.5 8V7.5M1.5 7.5H0" stroke="#79B00A"/>
<path d="M8 0.5L6.5 0.5V2.5M6.5 3V2.5M6.5 2.5H4.5V4.5M4.5 5V4.5M4.5 4.5H2.5V5.5M2.5 6V5.5M2.5 5.5H0.5V7" stroke="#9EB80F"/>
<path d="M5.5 0V1.5M5.5 2V1.5M5.5 1.5H3.5V3.5M3.5 4V3.5M3.5 3.5H1.5V4.5M1.5 5V4.5M1.5 4.5H0" stroke="#BECF07"/>
<path d="M5 0.5L0.5 0.5M0 0.5H0.5M0.5 0.5V2.5M0.5 4V2.5M0.5 2.5H3V1.5H1" stroke="#CCC11D"/>
<path d="M19.5 19.5V0.5H11.5V1.5H9.5V2.5H8.5V4.5H6.5V6.5H4.5V7.5H2.5V8.5H0.5V19.5H19.5Z" fill="#57A83C"/>
<path d="M11 0.5H11.5M11.5 0.5H19.5V19.5H0.5V8.5H2.5V7.5H4.5V6.5H6.5V4.5H8.5V2.5H9.5V1.5H11.5V0.5Z" stroke="#57A83C"/>
</g>
<defs>
<clipPath id="clip0_1_46">
<rect width="20" height="20" fill="white" transform="matrix(0 1 -1 0 20 0)"/>
</clipPath>
</defs>
</svg>
