<svg width="20" height="20" viewBox="0 0 20 20" fill="none" xmlns="http://www.w3.org/2000/svg">
<g clip-path="url(#clip0_1_93)">
<rect width="20" height="20" fill="#D9D9D9"/>
<path d="M20 19.5L9.5 19.5M9 19.5H9.5M9.5 19.5L9.5 0.5M9.5 0V0.5M9.5 0.5L19.5 0.5M20 0.5H19.5M19.5 0.5L19.5 19H18.5L18.5 1H17.5L17.5 19H16.5L16.5 1H15.5L15.5 19H14.5L14.5 1H13.5L13.5 19L12.5 19L12.5 1H11.5L11.5 19H10.5L10.5 1" stroke="#57A83C"/>
<path d="M3.5 20L3.5 0H0.5L0.5 20H1.5M1.5 20H2.5L2.5 0.5H1.5L1.5 20Z" stroke="#CCC11D"/>
<path d="M4.5 20L4.5 0" stroke="#BECF07"/>
<path d="M6.5 20L6.5 0H5.5L5.5 20" stroke="#9EB80F"/>
<path d="M8.5 20L8.5 0H7.5L7.5 20" stroke="#79B00A"/>
</g>
<defs>
<clipPath id="clip0_1_93">
<rect width="20" height="20" fill="white"/>
</clipPath>
</defs>
</svg>
