<svg width="20" height="20" viewBox="0 0 20 20" fill="none" xmlns="http://www.w3.org/2000/svg">
<g clip-path="url(#clip0_1_109)">
<rect y="20" width="20" height="20" transform="rotate(-90 0 20)" fill="#D9D9D9"/>
<path d="M19.5 0V10.5M19.5 11V10.5M19.5 10.5L0.5 10.5M0 10.5H0.5M0.5 10.5V0.5M0.5 0V0.5M0.5 0.5L19 0.5V1.5L1 1.5V2.5L19 2.5V3.5L1 3.5V4.5L19 4.5V5.5L1 5.5V6.5L19 6.5V7.5L1 7.5V8.5L19 8.5V9.5L1 9.5" stroke="#57A83C"/>
<path d="M20 16.5L0 16.5V19.5L20 19.5V18.5M20 18.5V17.5L0.5 17.5V18.5L20 18.5Z" stroke="#CCC11D"/>
<path d="M20 15.5L0 15.5" stroke="#BECF07"/>
<path d="M20 13.5L0 13.5V14.5L20 14.5" stroke="#9EB80F"/>
<path d="M20 11.5L0 11.5V12.5L20 12.5" stroke="#79B00A"/>
</g>
<defs>
<clipPath id="clip0_1_109">
<rect width="20" height="20" fill="white" transform="matrix(0 -1 1 0 0 20)"/>
</clipPath>
</defs>
</svg>
