<svg width="20" height="20" viewBox="0 0 20 20" fill="none" xmlns="http://www.w3.org/2000/svg">
<g clip-path="url(#clip0_1_38)">
<rect width="20" height="20" fill="#D9D9D9"/>
<path d="M0 0.5H19.5M20 0.5H19.5M19.5 0.5V19.5M19.5 20V19.5M19.5 19.5H8.5M8 19.5H8.5M8.5 19.5V18V17.5M8.5 17V17.5M8.5 17.5H7.5M7 17.5H7.5M7.5 17.5V15.5M7.5 15V15.5M7.5 15.5H6.5M6 15.5H6.5M6.5 15.5V13.5M6.5 13V13.5M6.5 13.5H4.5M4 13.5H4.5M4.5 13.5V11.5M4.5 11V11.5M4.5 11.5H2.5M2 11.5H2.5M2.5 11.5V10.5M2.5 10V10.5M2.5 10.5H1.5M1 10.5H1.5M1.5 10.5V8.5M1.5 8V8.5M1.5 8.5H0.5M0 8.5H0.5M0.5 8.5V1.5M0.5 1V1.5M0.5 1.5H19V2.5H1V3.5H19V4.5H1V5.5H19V6.5H1V7.5H19V8.5H2V9.5H19V10.5H5M3 10.5H5M5 10.5V11.5H19V12.5H7M5 12.5H7M7 12.5V13.5H19V14.5H8M7 14.5H8M8 14.5V15.5H19V16.5H9M8 16.5H9M9 16.5V17.5H19V18.5H9" stroke="#57A83C"/>
<path d="M0.5 9V11.5H1.5M2 11.5H1.5M1.5 11.5V12.5H3.5M4 12.5H3.5M3.5 12.5V14.5H5.5M6 14.5H5.5M5.5 14.5V16.5H6.5M7 16.5H6.5M6.5 16.5V18.5H7.5M8 18.5H7.5M7.5 18.5V20" stroke="#79B00A"/>
<path d="M0.5 12V13.5H2.5M3 13.5H2.5M2.5 13.5V15.5H4.5M5 15.5H4.5M4.5 15.5V17.5H5.5M6 17.5H5.5M5.5 17.5V19.5H7" stroke="#9EB80F"/>
<path d="M0 14.5H1.5M2 14.5H1.5M1.5 14.5V16.5H3.5M4 16.5H3.5M3.5 16.5V18.5H4.5M5 18.5H4.5M4.5 18.5V20" stroke="#BECF07"/>
<path d="M0.5 15V19.5M0.5 20V19.5M0.5 19.5H2.5M4 19.5H2.5M2.5 19.5V17H1.5V19" stroke="#CCC11D"/>
</g>
<defs>
<clipPath id="clip0_1_38">
<rect width="20" height="20" fill="white"/>
</clipPath>
</defs>
</svg>
