<svg width="20" height="20" viewBox="0 0 20 20" fill="none" xmlns="http://www.w3.org/2000/svg">
<g clip-path="url(#clip0_1_54)">
<rect x="20" y="20" width="20" height="20" transform="rotate(-180 20 20)" fill="#D9D9D9"/>
<path d="M19.5 11V8.5H18.5M18 8.5H18.5M18.5 8.5V7.5L16.5 7.5M16 7.5H16.5M16.5 7.5V5.5H14.5M14 5.5L14.5 5.5M14.5 5.5V3.5L13.5 3.5M13 3.5H13.5M13.5 3.5L13.5 1.5H12.5M12 1.5H12.5M12.5 1.5V0" stroke="#79B00A"/>
<path d="M19.5 8V6.5H17.5M17 6.5L17.5 6.5M17.5 6.5V4.5L15.5 4.5M15 4.5L15.5 4.5M15.5 4.5L15.5 2.5H14.5M14 2.5L14.5 2.5M14.5 2.5V0.5L13 0.5" stroke="#9EB80F"/>
<path d="M20 5.5H18.5M18 5.5L18.5 5.5M18.5 5.5V3.5L16.5 3.5M16 3.5H16.5M16.5 3.5V1.5H15.5M15 1.5H15.5M15.5 1.5L15.5 0" stroke="#BECF07"/>
<path d="M19.5 5V0.5M19.5 0V0.5M19.5 0.5L17.5 0.5M16 0.5H17.5M17.5 0.5V3H18.5V1" stroke="#CCC11D"/>
<path d="M11.5 0.5H0.5V19.5H19.5V11.5H18.5V9.5H17.5V8.5H15.5V6.5H13.5V4.5H12.5V2.5H11.5V0.5Z" fill="#57A83C" stroke="#57A83C"/>
</g>
<defs>
<clipPath id="clip0_1_54">
<rect width="20" height="20" fill="white" transform="matrix(-1 0 0 -1 20 20)"/>
</clipPath>
</defs>
</svg>
