<svg width="20" height="20" viewBox="0 0 20 20" fill="none" xmlns="http://www.w3.org/2000/svg">
<g clip-path="url(#clip0_1_61)">
<rect y="20" width="20" height="20" transform="rotate(-90 0 20)" fill="#D9D9D9"/>
<path d="M0.5 20L0.5 0.5M0.5 0L0.5 0.5M0.5 0.5L19.5 0.5M20 0.5H19.5M19.5 0.5L19.5 11.5M19.5 12V11.5M19.5 11.5H18H17.5M17 11.5H17.5M17.5 11.5V12.5M17.5 13V12.5M17.5 12.5H15.5M15 12.5H15.5M15.5 12.5V13.5M15.5 14V13.5M15.5 13.5H13.5M13 13.5H13.5M13.5 13.5V15.5M13.5 16L13.5 15.5M13.5 15.5L11.5 15.5M11 15.5H11.5M11.5 15.5L11.5 17.5M11.5 18V17.5M11.5 17.5H10.5M10 17.5L10.5 17.5M10.5 17.5V18.5M10.5 19V18.5M10.5 18.5L8.5 18.5M8 18.5H8.5M8.5 18.5V19.5M8.5 20V19.5M8.5 19.5H1.5M1 19.5H1.5M1.5 19.5L1.5 1H2.5L2.5 19H3.5L3.5 1H4.5L4.5 19H5.5L5.5 1H6.5L6.5 19H7.5L7.5 1H8.5L8.5 18H9.5L9.5 1H10.5L10.5 15M10.5 17L10.5 15M10.5 15H11.5L11.5 1H12.5L12.5 13M12.5 15V13M12.5 13H13.5L13.5 1H14.5L14.5 12M14.5 13V12M14.5 12H15.5L15.5 1H16.5V11M16.5 12L16.5 11M16.5 11H17.5V1H18.5V11" stroke="#57A83C"/>
<path d="M9 19.5H11.5V18.5M11.5 18V18.5M11.5 18.5H12.5V16.5M12.5 16V16.5M12.5 16.5H14.5V14.5M14.5 14V14.5M14.5 14.5L16.5 14.5V13.5M16.5 13V13.5M16.5 13.5H18.5V12.5M18.5 12V12.5M18.5 12.5H20" stroke="#79B00A"/>
<path d="M12 19.5H13.5V17.5M13.5 17V17.5M13.5 17.5H15.5V15.5M15.5 15V15.5M15.5 15.5H17.5V14.5M17.5 14V14.5M17.5 14.5L19.5 14.5V13" stroke="#9EB80F"/>
<path d="M14.5 20V18.5M14.5 18V18.5M14.5 18.5H16.5V16.5M16.5 16V16.5M16.5 16.5H18.5V15.5M18.5 15V15.5M18.5 15.5H20" stroke="#BECF07"/>
<path d="M15 19.5H19.5M20 19.5H19.5M19.5 19.5V17.5M19.5 16V17.5M19.5 17.5H17V18.5H19" stroke="#CCC11D"/>
</g>
<defs>
<clipPath id="clip0_1_61">
<rect width="20" height="20" fill="white" transform="matrix(0 -1 1 0 0 20)"/>
</clipPath>
</defs>
</svg>
