<svg width="20" height="20" viewBox="0 0 20 20" fill="none" xmlns="http://www.w3.org/2000/svg">
<g clip-path="url(#clip0_1_61)">
<rect y="20" width="20" height="20" transform="rotate(-90 0 20)" fill="#D9D9D9"/>
<path d="M9 19.5H11.5V18.5M11.5 18V18.5M11.5 18.5H12.5V16.5M12.5 16V16.5M12.5 16.5H14.5V14.5M14.5 14V14.5M14.5 14.5L16.5 14.5V13.5M16.5 13V13.5M16.5 13.5H18.5V12.5M18.5 12V12.5M18.5 12.5H20" stroke="#79B00A"/>
<path d="M12 19.5H13.5V17.5M13.5 17V17.5M13.5 17.5H15.5V15.5M15.5 15V15.5M15.5 15.5H17.5V14.5M17.5 14V14.5M17.5 14.5L19.5 14.5V13" stroke="#9EB80F"/>
<path d="M14.5 20V18.5M14.5 18V18.5M14.5 18.5H16.5V16.5M16.5 16V16.5M16.5 16.5H18.5V15.5M18.5 15V15.5M18.5 15.5H20" stroke="#BECF07"/>
<path d="M15 19.5H19.5M20 19.5H19.5M19.5 19.5V17.5M19.5 16V17.5M19.5 17.5H17V18.5H19" stroke="#CCC11D"/>
<path d="M19.5 0.5H0.5V19.5H8.5V18.5H10.5V17.5H11.5V15.5H13.5V13.5H15.5V12.5H17.5V11.5H19.5V0.5Z" fill="#57A83C" stroke="#57A83C"/>
</g>
<defs>
<clipPath id="clip0_1_61">
<rect width="20" height="20" fill="white" transform="matrix(0 -1 1 0 0 20)"/>
</clipPath>
</defs>
</svg>
