<svg width="20" height="20" viewBox="0 0 20 20" fill="none" xmlns="http://www.w3.org/2000/svg">
<g clip-path="url(#clip0_1_46)">
<rect x="20" width="20" height="20" transform="rotate(90 20 0)" fill="#D9D9D9"/>
<path d="M19.5 0V19.5M19.5 20V19.5M19.5 19.5H0.5M0 19.5H0.5M0.5 19.5V8.5M0.5 8V8.5M0.5 8.5H2H2.5M3 8.5H2.5M2.5 8.5V7.5M2.5 7V7.5M2.5 7.5H4.5M5 7.5H4.5M4.5 7.5V6.5M4.5 6V6.5M4.5 6.5H6.5M7 6.5H6.5M6.5 6.5V4.5M6.5 4V4.5M6.5 4.5H8.5M9 4.5H8.5M8.5 4.5V2.5M8.5 2V2.5M8.5 2.5H9.5M10 2.5H9.5M9.5 2.5V1.5M9.5 1V1.5M9.5 1.5H11.5M12 1.5H11.5M11.5 1.5V0.5M11.5 0V0.5M11.5 0.5L18.5 0.5M19 0.5H18.5M18.5 0.5V19H17.5V1L16.5 1V19H15.5V1H14.5V19H13.5V1H12.5V19H11.5V2H10.5V19H9.5V5M9.5 3V5M9.5 5H8.5V19H7.5V7M7.5 5V7M7.5 7H6.5V19H5.5V8M5.5 7V8M5.5 8H4.5V19H3.5V9M3.5 8V9M3.5 9H2.5V19H1.5V9" stroke="#57A83C"/>
<path d="M11 0.5L8.5 0.5V1.5M8.5 2V1.5M8.5 1.5H7.5V3.5M7.5 4V3.5M7.5 3.5H5.5V5.5M5.5 6V5.5M5.5 5.5H3.5V6.5M3.5 7V6.5M3.5 6.5H1.5V7.5M1.5 8V7.5M1.5 7.5H0" stroke="#79B00A"/>
<path d="M8 0.5L6.5 0.5V2.5M6.5 3V2.5M6.5 2.5H4.5V4.5M4.5 5V4.5M4.5 4.5H2.5V5.5M2.5 6V5.5M2.5 5.5H0.5V7" stroke="#9EB80F"/>
<path d="M5.5 0V1.5M5.5 2V1.5M5.5 1.5H3.5V3.5M3.5 4V3.5M3.5 3.5H1.5V4.5M1.5 5V4.5M1.5 4.5H0" stroke="#BECF07"/>
<path d="M5 0.5L0.5 0.5M0 0.5H0.5M0.5 0.5V2.5M0.5 4V2.5M0.5 2.5H3V1.5H1" stroke="#CCC11D"/>
</g>
<defs>
<clipPath id="clip0_1_46">
<rect width="20" height="20" fill="white" transform="matrix(0 1 -1 0 20 0)"/>
</clipPath>
</defs>
</svg>
