<svg width="20" height="20" viewBox="0 0 20 20" fill="none" xmlns="http://www.w3.org/2000/svg">
<g clip-path="url(#clip0_1_54)">
<rect x="20" y="20" width="20" height="20" transform="rotate(-180 20 20)" fill="#D9D9D9"/>
<path d="M20 19.5L0.5 19.5M0 19.5H0.5M0.5 19.5L0.5 0.5M0.5 0V0.5M0.5 0.5H11.5M12 0.5H11.5M11.5 0.5L11.5 2V2.5M11.5 3V2.5M11.5 2.5H12.5M13 2.5L12.5 2.5M12.5 2.5V4.5M12.5 5V4.5M12.5 4.5H13.5M14 4.5H13.5M13.5 4.5V6.5M13.5 7V6.5M13.5 6.5H15.5M16 6.5H15.5M15.5 6.5V8.5M15.5 9V8.5M15.5 8.5L17.5 8.5M18 8.5H17.5M17.5 8.5V9.5M17.5 10V9.5M17.5 9.5H18.5M19 9.5H18.5M18.5 9.5V11.5M18.5 12L18.5 11.5M18.5 11.5H19.5M20 11.5H19.5M19.5 11.5L19.5 18.5M19.5 19V18.5M19.5 18.5L1 18.5V17.5L19 17.5V16.5L1 16.5V15.5L19 15.5V14.5L1 14.5V13.5L19 13.5V12.5L1 12.5L1 11.5L18 11.5V10.5L1 10.5V9.5L15 9.5M17 9.5L15 9.5M15 9.5V8.5L1 8.5V7.5L13 7.5M15 7.5H13M13 7.5V6.5L1 6.5V5.5L12 5.5M13 5.5H12M12 5.5V4.5L1 4.5V3.5H11M12 3.5H11M11 3.5V2.5H1V1.5H11" stroke="#57A83C"/>
<path d="M19.5 11V8.5H18.5M18 8.5H18.5M18.5 8.5V7.5L16.5 7.5M16 7.5H16.5M16.5 7.5V5.5H14.5M14 5.5L14.5 5.5M14.5 5.5V3.5L13.5 3.5M13 3.5H13.5M13.5 3.5L13.5 1.5H12.5M12 1.5H12.5M12.5 1.5V0" stroke="#79B00A"/>
<path d="M19.5 8V6.5H17.5M17 6.5L17.5 6.5M17.5 6.5V4.5L15.5 4.5M15 4.5L15.5 4.5M15.5 4.5L15.5 2.5H14.5M14 2.5L14.5 2.5M14.5 2.5V0.5L13 0.5" stroke="#9EB80F"/>
<path d="M20 5.5H18.5M18 5.5L18.5 5.5M18.5 5.5V3.5L16.5 3.5M16 3.5H16.5M16.5 3.5V1.5H15.5M15 1.5H15.5M15.5 1.5L15.5 0" stroke="#BECF07"/>
<path d="M19.5 5V0.5M19.5 0V0.5M19.5 0.5L17.5 0.5M16 0.5H17.5M17.5 0.5V3H18.5V1" stroke="#CCC11D"/>
</g>
<defs>
<clipPath id="clip0_1_54">
<rect width="20" height="20" fill="white" transform="matrix(-1 0 0 -1 20 20)"/>
</clipPath>
</defs>
</svg>
